<mxfile host="Electron" modified="2024-04-08T14:58:47.371Z" agent="Mozilla/5.0 (X11; Linux x86_64) AppleWebKit/537.36 (KHTML, like Gecko) draw.io/24.1.0 Chrome/120.0.6099.109 Electron/28.1.0 Safari/537.36" etag="wzoF05IksLsH32J7nN7C" version="24.1.0" type="device">
  <diagram name="Page-1" id="ZHDZ94MFAawEk2bePR7I">
    <mxGraphModel dx="1434" dy="791" grid="1" gridSize="10" guides="1" tooltips="1" connect="1" arrows="1" fold="1" page="1" pageScale="1" pageWidth="850" pageHeight="1100" math="0" shadow="0">
      <root>
        <mxCell id="0" />
        <mxCell id="1" parent="0" />
        <mxCell id="bPvuheQ4Vo8DeEKhQ3WO-1" value="Процесс сбора и анализа цен" style="swimlane;html=1;childLayout=stackLayout;resizeParent=1;resizeParentMax=0;horizontal=0;startSize=20;horizontalStack=0;whiteSpace=wrap;labelBackgroundColor=none;" parent="1" vertex="1">
          <mxGeometry x="405" y="530" width="1945" height="980" as="geometry" />
        </mxCell>
        <mxCell id="bPvuheQ4Vo8DeEKhQ3WO-2" value="Пользователь" style="swimlane;html=1;startSize=20;horizontal=0;" parent="bPvuheQ4Vo8DeEKhQ3WO-1" vertex="1">
          <mxGeometry x="20" width="1925" height="200" as="geometry">
            <mxRectangle x="20" width="460" height="30" as="alternateBounds" />
          </mxGeometry>
        </mxCell>
        <mxCell id="M3TPKHhHua5YoJJ2DM4J-50" value="Пользователь хочет&lt;div&gt;купить товар&lt;/div&gt;" style="points=[[0.145,0.145,0],[0.5,0,0],[0.855,0.145,0],[1,0.5,0],[0.855,0.855,0],[0.5,1,0],[0.145,0.855,0],[0,0.5,0]];shape=mxgraph.bpmn.event;html=1;verticalLabelPosition=bottom;labelBackgroundColor=none;verticalAlign=top;align=center;perimeter=ellipsePerimeter;outlineConnect=0;aspect=fixed;outline=standard;symbol=general;" parent="bPvuheQ4Vo8DeEKhQ3WO-2" vertex="1">
          <mxGeometry x="70" y="85" width="30" height="30" as="geometry" />
        </mxCell>
        <mxCell id="M3TPKHhHua5YoJJ2DM4J-52" value="Выбор места покупки" style="points=[[0.25,0,0],[0.5,0,0],[0.75,0,0],[1,0.25,0],[1,0.5,0],[1,0.75,0],[0.75,1,0],[0.5,1,0],[0.25,1,0],[0,0.75,0],[0,0.5,0],[0,0.25,0]];shape=mxgraph.bpmn.task;whiteSpace=wrap;rectStyle=rounded;size=10;html=1;container=1;expand=0;collapsible=0;taskMarker=user;" parent="bPvuheQ4Vo8DeEKhQ3WO-2" vertex="1">
          <mxGeometry x="175" y="70" width="110" height="60" as="geometry" />
        </mxCell>
        <mxCell id="M3TPKHhHua5YoJJ2DM4J-53" value="" style="edgeStyle=elbowEdgeStyle;fontSize=12;html=1;endArrow=blockThin;endFill=1;rounded=0;exitX=1;exitY=0.5;exitDx=0;exitDy=0;exitPerimeter=0;entryX=0;entryY=0.5;entryDx=0;entryDy=0;entryPerimeter=0;" parent="bPvuheQ4Vo8DeEKhQ3WO-2" source="M3TPKHhHua5YoJJ2DM4J-50" target="M3TPKHhHua5YoJJ2DM4J-52" edge="1">
          <mxGeometry width="160" relative="1" as="geometry">
            <mxPoint x="220" y="200" as="sourcePoint" />
            <mxPoint x="380" y="200" as="targetPoint" />
          </mxGeometry>
        </mxCell>
        <mxCell id="M3TPKHhHua5YoJJ2DM4J-59" value="Пользователь&amp;nbsp;&lt;div&gt;пойдет в магазин?&lt;/div&gt;" style="points=[[0.25,0.25,0],[0.5,0,0],[0.75,0.25,0],[1,0.5,0],[0.75,0.75,0],[0.5,1,0],[0.25,0.75,0],[0,0.5,0]];shape=mxgraph.bpmn.gateway2;html=1;verticalLabelPosition=bottom;labelBackgroundColor=none;verticalAlign=top;align=center;perimeter=rhombusPerimeter;outlineConnect=0;outline=none;symbol=none;gwType=exclusive;" parent="bPvuheQ4Vo8DeEKhQ3WO-2" vertex="1">
          <mxGeometry x="330" y="75" width="50" height="50" as="geometry" />
        </mxCell>
        <mxCell id="M3TPKHhHua5YoJJ2DM4J-60" value="" style="edgeStyle=elbowEdgeStyle;fontSize=12;html=1;endArrow=blockThin;endFill=1;rounded=0;exitX=1;exitY=0.5;exitDx=0;exitDy=0;exitPerimeter=0;entryX=0;entryY=0.5;entryDx=0;entryDy=0;entryPerimeter=0;" parent="bPvuheQ4Vo8DeEKhQ3WO-2" source="M3TPKHhHua5YoJJ2DM4J-52" target="M3TPKHhHua5YoJJ2DM4J-59" edge="1">
          <mxGeometry width="160" relative="1" as="geometry">
            <mxPoint x="560" y="210" as="sourcePoint" />
            <mxPoint x="720" y="210" as="targetPoint" />
          </mxGeometry>
        </mxCell>
        <mxCell id="M3TPKHhHua5YoJJ2DM4J-61" value="Пойти в магазин" style="points=[[0.25,0,0],[0.5,0,0],[0.75,0,0],[1,0.25,0],[1,0.5,0],[1,0.75,0],[0.75,1,0],[0.5,1,0],[0.25,1,0],[0,0.75,0],[0,0.5,0],[0,0.25,0]];shape=mxgraph.bpmn.task;whiteSpace=wrap;rectStyle=rounded;size=10;html=1;container=1;expand=0;collapsible=0;taskMarker=user;" parent="bPvuheQ4Vo8DeEKhQ3WO-2" vertex="1">
          <mxGeometry x="430" y="125" width="110" height="60" as="geometry" />
        </mxCell>
        <mxCell id="M3TPKHhHua5YoJJ2DM4J-62" value="" style="edgeStyle=elbowEdgeStyle;fontSize=12;html=1;endArrow=blockThin;endFill=1;rounded=0;exitX=0.5;exitY=1;exitDx=0;exitDy=0;exitPerimeter=0;entryX=0;entryY=0.5;entryDx=0;entryDy=0;entryPerimeter=0;" parent="bPvuheQ4Vo8DeEKhQ3WO-2" source="M3TPKHhHua5YoJJ2DM4J-59" target="M3TPKHhHua5YoJJ2DM4J-61" edge="1">
          <mxGeometry width="160" relative="1" as="geometry">
            <mxPoint x="490" y="310" as="sourcePoint" />
            <mxPoint x="650" y="310" as="targetPoint" />
            <Array as="points">
              <mxPoint x="355" y="140" />
            </Array>
          </mxGeometry>
        </mxCell>
        <mxCell id="M3TPKHhHua5YoJJ2DM4J-65" value="" style="edgeStyle=elbowEdgeStyle;fontSize=12;html=1;endArrow=blockThin;endFill=1;rounded=0;entryX=0;entryY=0.5;entryDx=0;entryDy=0;entryPerimeter=0;exitX=0.5;exitY=0;exitDx=0;exitDy=0;exitPerimeter=0;" parent="bPvuheQ4Vo8DeEKhQ3WO-2" source="M3TPKHhHua5YoJJ2DM4J-59" target="M3TPKHhHua5YoJJ2DM4J-92" edge="1">
          <mxGeometry width="160" relative="1" as="geometry">
            <mxPoint x="270" y="220" as="sourcePoint" />
            <mxPoint x="471.25" y="43.75" as="targetPoint" />
            <Array as="points">
              <mxPoint x="355" y="60" />
            </Array>
          </mxGeometry>
        </mxCell>
        <mxCell id="M3TPKHhHua5YoJJ2DM4J-114" value="Нет" style="edgeLabel;html=1;align=center;verticalAlign=middle;resizable=0;points=[];" parent="M3TPKHhHua5YoJJ2DM4J-65" vertex="1" connectable="0">
          <mxGeometry x="-0.9753" y="-1" relative="1" as="geometry">
            <mxPoint as="offset" />
          </mxGeometry>
        </mxCell>
        <mxCell id="M3TPKHhHua5YoJJ2DM4J-70" value="Пользователь&lt;div&gt;хочет сообщить&lt;/div&gt;&lt;div&gt;об отстутствии&lt;/div&gt;&lt;div&gt;товара в магазине?&lt;/div&gt;" style="points=[[0.25,0.25,0],[0.5,0,0],[0.75,0.25,0],[1,0.5,0],[0.75,0.75,0],[0.5,1,0],[0.25,0.75,0],[0,0.5,0]];shape=mxgraph.bpmn.gateway2;html=1;verticalLabelPosition=bottom;labelBackgroundColor=none;verticalAlign=top;align=center;perimeter=rhombusPerimeter;outlineConnect=0;outline=none;symbol=none;gwType=exclusive;" parent="bPvuheQ4Vo8DeEKhQ3WO-2" vertex="1">
          <mxGeometry x="640" y="75" width="50" height="50" as="geometry" />
        </mxCell>
        <mxCell id="M3TPKHhHua5YoJJ2DM4J-83" value="Уведомить систему об отстутствии товара&lt;div&gt;в магазине&lt;/div&gt;" style="points=[[0.25,0,0],[0.5,0,0],[0.75,0,0],[1,0.25,0],[1,0.5,0],[1,0.75,0],[0.75,1,0],[0.5,1,0],[0.25,1,0],[0,0.75,0],[0,0.5,0],[0,0.25,0]];shape=mxgraph.bpmn.task;whiteSpace=wrap;rectStyle=rounded;size=10;html=1;container=1;expand=0;collapsible=0;taskMarker=user;" parent="bPvuheQ4Vo8DeEKhQ3WO-2" vertex="1">
          <mxGeometry x="770" y="125" width="110" height="60" as="geometry" />
        </mxCell>
        <mxCell id="M3TPKHhHua5YoJJ2DM4J-84" value="" style="edgeStyle=elbowEdgeStyle;fontSize=12;html=1;endArrow=blockThin;endFill=1;rounded=0;exitX=0.5;exitY=1;exitDx=0;exitDy=0;exitPerimeter=0;entryX=0;entryY=0.5;entryDx=0;entryDy=0;entryPerimeter=0;elbow=vertical;" parent="bPvuheQ4Vo8DeEKhQ3WO-2" source="M3TPKHhHua5YoJJ2DM4J-70" target="M3TPKHhHua5YoJJ2DM4J-83" edge="1">
          <mxGeometry width="160" relative="1" as="geometry">
            <mxPoint x="540" y="310" as="sourcePoint" />
            <mxPoint x="700" y="310" as="targetPoint" />
            <Array as="points">
              <mxPoint x="665" y="155" />
            </Array>
          </mxGeometry>
        </mxCell>
        <mxCell id="M3TPKHhHua5YoJJ2DM4J-86" value="" style="edgeStyle=elbowEdgeStyle;fontSize=12;html=1;endArrow=blockThin;endFill=1;rounded=0;entryX=0;entryY=0.5;entryDx=0;entryDy=0;entryPerimeter=0;exitX=0.5;exitY=0;exitDx=0;exitDy=0;exitPerimeter=0;" parent="bPvuheQ4Vo8DeEKhQ3WO-2" source="M3TPKHhHua5YoJJ2DM4J-70" target="M3TPKHhHua5YoJJ2DM4J-92" edge="1">
          <mxGeometry width="160" relative="1" as="geometry">
            <mxPoint x="540" y="310" as="sourcePoint" />
            <mxPoint x="811.25" y="43.75" as="targetPoint" />
            <Array as="points">
              <mxPoint x="665" y="60" />
            </Array>
          </mxGeometry>
        </mxCell>
        <mxCell id="M3TPKHhHua5YoJJ2DM4J-115" value="Нет" style="edgeLabel;html=1;align=center;verticalAlign=middle;resizable=0;points=[];" parent="M3TPKHhHua5YoJJ2DM4J-86" vertex="1" connectable="0">
          <mxGeometry x="-0.953" y="-3" relative="1" as="geometry">
            <mxPoint as="offset" />
          </mxGeometry>
        </mxCell>
        <mxCell id="M3TPKHhHua5YoJJ2DM4J-89" value="Пользователь&lt;div&gt;хочет изменить&lt;/div&gt;&lt;div&gt;&lt;span style=&quot;background-color: initial;&quot;&gt;цену в системе?&lt;/span&gt;&lt;/div&gt;" style="points=[[0.25,0.25,0],[0.5,0,0],[0.75,0.25,0],[1,0.5,0],[0.75,0.75,0],[0.5,1,0],[0.25,0.75,0],[0,0.5,0]];shape=mxgraph.bpmn.gateway2;html=1;verticalLabelPosition=bottom;labelBackgroundColor=none;verticalAlign=top;align=center;perimeter=rhombusPerimeter;outlineConnect=0;outline=none;symbol=none;gwType=exclusive;" parent="bPvuheQ4Vo8DeEKhQ3WO-2" vertex="1">
          <mxGeometry x="990" y="75" width="50" height="50" as="geometry" />
        </mxCell>
        <mxCell id="M3TPKHhHua5YoJJ2DM4J-90" value="Отправить новую&lt;div&gt;цену в систему&lt;/div&gt;" style="points=[[0.25,0,0],[0.5,0,0],[0.75,0,0],[1,0.25,0],[1,0.5,0],[1,0.75,0],[0.75,1,0],[0.5,1,0],[0.25,1,0],[0,0.75,0],[0,0.5,0],[0,0.25,0]];shape=mxgraph.bpmn.task;whiteSpace=wrap;rectStyle=rounded;size=10;html=1;container=1;expand=0;collapsible=0;taskMarker=user;" parent="bPvuheQ4Vo8DeEKhQ3WO-2" vertex="1">
          <mxGeometry x="1120" y="125" width="110" height="60" as="geometry" />
        </mxCell>
        <mxCell id="M3TPKHhHua5YoJJ2DM4J-91" value="" style="edgeStyle=elbowEdgeStyle;fontSize=12;html=1;endArrow=blockThin;endFill=1;rounded=0;exitX=0.5;exitY=1;exitDx=0;exitDy=0;exitPerimeter=0;entryX=0;entryY=0.5;entryDx=0;entryDy=0;entryPerimeter=0;elbow=vertical;" parent="bPvuheQ4Vo8DeEKhQ3WO-2" source="M3TPKHhHua5YoJJ2DM4J-89" target="M3TPKHhHua5YoJJ2DM4J-90" edge="1">
          <mxGeometry width="160" relative="1" as="geometry">
            <mxPoint x="890" y="300" as="sourcePoint" />
            <mxPoint x="1050" y="300" as="targetPoint" />
            <Array as="points">
              <mxPoint x="1075" y="155" />
            </Array>
          </mxGeometry>
        </mxCell>
        <mxCell id="M3TPKHhHua5YoJJ2DM4J-92" value="Товар не был&lt;div&gt;куплен&lt;/div&gt;" style="points=[[0.145,0.145,0],[0.5,0,0],[0.855,0.145,0],[1,0.5,0],[0.855,0.855,0],[0.5,1,0],[0.145,0.855,0],[0,0.5,0]];shape=mxgraph.bpmn.event;html=1;verticalLabelPosition=bottom;labelBackgroundColor=none;verticalAlign=top;align=center;perimeter=ellipsePerimeter;outlineConnect=0;aspect=fixed;outline=end;symbol=terminate2;" parent="bPvuheQ4Vo8DeEKhQ3WO-2" vertex="1">
          <mxGeometry x="1315" y="30" width="27.5" height="27.5" as="geometry" />
        </mxCell>
        <mxCell id="M3TPKHhHua5YoJJ2DM4J-93" value="" style="edgeStyle=elbowEdgeStyle;fontSize=12;html=1;endArrow=blockThin;endFill=1;rounded=0;entryX=0;entryY=0.5;entryDx=0;entryDy=0;entryPerimeter=0;exitX=0.5;exitY=0;exitDx=0;exitDy=0;exitPerimeter=0;" parent="bPvuheQ4Vo8DeEKhQ3WO-2" source="M3TPKHhHua5YoJJ2DM4J-89" target="M3TPKHhHua5YoJJ2DM4J-92" edge="1">
          <mxGeometry width="160" relative="1" as="geometry">
            <mxPoint x="890" y="300" as="sourcePoint" />
            <mxPoint x="1050" y="300" as="targetPoint" />
            <Array as="points">
              <mxPoint x="1015" y="50" />
            </Array>
          </mxGeometry>
        </mxCell>
        <mxCell id="M3TPKHhHua5YoJJ2DM4J-116" value="Нет" style="edgeLabel;html=1;align=center;verticalAlign=middle;resizable=0;points=[];" parent="M3TPKHhHua5YoJJ2DM4J-93" vertex="1" connectable="0">
          <mxGeometry x="-0.9315" y="1" relative="1" as="geometry">
            <mxPoint as="offset" />
          </mxGeometry>
        </mxCell>
        <mxCell id="M3TPKHhHua5YoJJ2DM4J-97" value="" style="edgeStyle=elbowEdgeStyle;fontSize=12;html=1;endArrow=blockThin;endFill=1;rounded=0;exitX=1;exitY=0.5;exitDx=0;exitDy=0;exitPerimeter=0;entryX=0;entryY=0.5;entryDx=0;entryDy=0;entryPerimeter=0;" parent="bPvuheQ4Vo8DeEKhQ3WO-2" source="M3TPKHhHua5YoJJ2DM4J-90" target="M3TPKHhHua5YoJJ2DM4J-92" edge="1">
          <mxGeometry width="160" relative="1" as="geometry">
            <mxPoint x="935" y="270" as="sourcePoint" />
            <mxPoint x="1315" y="40" as="targetPoint" />
          </mxGeometry>
        </mxCell>
        <mxCell id="M3TPKHhHua5YoJJ2DM4J-98" value="" style="edgeStyle=elbowEdgeStyle;fontSize=12;html=1;endArrow=blockThin;endFill=1;rounded=0;exitX=1;exitY=0.5;exitDx=0;exitDy=0;exitPerimeter=0;entryX=0;entryY=0.5;entryDx=0;entryDy=0;entryPerimeter=0;" parent="bPvuheQ4Vo8DeEKhQ3WO-2" source="M3TPKHhHua5YoJJ2DM4J-83" target="M3TPKHhHua5YoJJ2DM4J-92" edge="1">
          <mxGeometry width="160" relative="1" as="geometry">
            <mxPoint x="1035" y="210" as="sourcePoint" />
            <mxPoint x="1195" y="210" as="targetPoint" />
            <Array as="points">
              <mxPoint x="905" y="100" />
            </Array>
          </mxGeometry>
        </mxCell>
        <mxCell id="M3TPKHhHua5YoJJ2DM4J-105" value="Пришел чек" style="points=[[0.145,0.145,0],[0.5,0,0],[0.855,0.145,0],[1,0.5,0],[0.855,0.855,0],[0.5,1,0],[0.145,0.855,0],[0,0.5,0]];shape=mxgraph.bpmn.event;html=1;verticalLabelPosition=bottom;labelBackgroundColor=none;verticalAlign=top;align=center;perimeter=ellipsePerimeter;outlineConnect=0;aspect=fixed;outline=catching;symbol=message;" parent="bPvuheQ4Vo8DeEKhQ3WO-2" vertex="1">
          <mxGeometry x="1395" y="85" width="30" height="30" as="geometry" />
        </mxCell>
        <mxCell id="M3TPKHhHua5YoJJ2DM4J-108" value="Пользователь&lt;div&gt;хочет отправить&lt;/div&gt;&lt;div&gt;чек в систему?&lt;/div&gt;" style="points=[[0.25,0.25,0],[0.5,0,0],[0.75,0.25,0],[1,0.5,0],[0.75,0.75,0],[0.5,1,0],[0.25,0.75,0],[0,0.5,0]];shape=mxgraph.bpmn.gateway2;html=1;verticalLabelPosition=bottom;labelBackgroundColor=none;verticalAlign=top;align=center;perimeter=rhombusPerimeter;outlineConnect=0;outline=none;symbol=none;gwType=exclusive;" parent="bPvuheQ4Vo8DeEKhQ3WO-2" vertex="1">
          <mxGeometry x="1485" y="75" width="50" height="50" as="geometry" />
        </mxCell>
        <mxCell id="M3TPKHhHua5YoJJ2DM4J-109" value="" style="edgeStyle=elbowEdgeStyle;fontSize=12;html=1;endArrow=blockThin;endFill=1;rounded=0;entryX=0;entryY=0.5;entryDx=0;entryDy=0;entryPerimeter=0;exitX=1;exitY=0.5;exitDx=0;exitDy=0;exitPerimeter=0;" parent="bPvuheQ4Vo8DeEKhQ3WO-2" source="M3TPKHhHua5YoJJ2DM4J-105" target="M3TPKHhHua5YoJJ2DM4J-108" edge="1">
          <mxGeometry width="160" relative="1" as="geometry">
            <mxPoint x="1235" y="250" as="sourcePoint" />
            <mxPoint x="1395" y="250" as="targetPoint" />
          </mxGeometry>
        </mxCell>
        <mxCell id="M3TPKHhHua5YoJJ2DM4J-110" value="Отправить чек&lt;div&gt;в систему&lt;/div&gt;" style="points=[[0.25,0,0],[0.5,0,0],[0.75,0,0],[1,0.25,0],[1,0.5,0],[1,0.75,0],[0.75,1,0],[0.5,1,0],[0.25,1,0],[0,0.75,0],[0,0.5,0],[0,0.25,0]];shape=mxgraph.bpmn.task;whiteSpace=wrap;rectStyle=rounded;size=10;html=1;container=1;expand=0;collapsible=0;taskMarker=user;" parent="bPvuheQ4Vo8DeEKhQ3WO-2" vertex="1">
          <mxGeometry x="1585" y="125" width="110" height="60" as="geometry" />
        </mxCell>
        <mxCell id="M3TPKHhHua5YoJJ2DM4J-111" value="" style="edgeStyle=elbowEdgeStyle;fontSize=12;html=1;endArrow=blockThin;endFill=1;rounded=0;entryX=0;entryY=0.5;entryDx=0;entryDy=0;entryPerimeter=0;exitX=0.5;exitY=1;exitDx=0;exitDy=0;exitPerimeter=0;" parent="bPvuheQ4Vo8DeEKhQ3WO-2" source="M3TPKHhHua5YoJJ2DM4J-108" target="M3TPKHhHua5YoJJ2DM4J-110" edge="1">
          <mxGeometry width="160" relative="1" as="geometry">
            <mxPoint x="1465" y="220" as="sourcePoint" />
            <mxPoint x="1625" y="220" as="targetPoint" />
            <Array as="points">
              <mxPoint x="1510" y="140" />
            </Array>
          </mxGeometry>
        </mxCell>
        <mxCell id="M3TPKHhHua5YoJJ2DM4J-141" value="Товар был&lt;div&gt;куплен&lt;/div&gt;" style="points=[[0.145,0.145,0],[0.5,0,0],[0.855,0.145,0],[1,0.5,0],[0.855,0.855,0],[0.5,1,0],[0.145,0.855,0],[0,0.5,0]];shape=mxgraph.bpmn.event;html=1;verticalLabelPosition=bottom;labelBackgroundColor=none;verticalAlign=top;align=center;perimeter=ellipsePerimeter;outlineConnect=0;aspect=fixed;outline=end;symbol=terminate2;" parent="bPvuheQ4Vo8DeEKhQ3WO-2" vertex="1">
          <mxGeometry x="1765" y="30" width="27.5" height="27.5" as="geometry" />
        </mxCell>
        <mxCell id="M3TPKHhHua5YoJJ2DM4J-144" value="" style="edgeStyle=elbowEdgeStyle;fontSize=12;html=1;endArrow=blockThin;endFill=1;rounded=0;entryX=0;entryY=0.5;entryDx=0;entryDy=0;entryPerimeter=0;exitX=0.5;exitY=0;exitDx=0;exitDy=0;exitPerimeter=0;" parent="bPvuheQ4Vo8DeEKhQ3WO-2" source="M3TPKHhHua5YoJJ2DM4J-108" target="M3TPKHhHua5YoJJ2DM4J-141" edge="1">
          <mxGeometry width="160" relative="1" as="geometry">
            <mxPoint x="1455" y="280" as="sourcePoint" />
            <mxPoint x="1615" y="280" as="targetPoint" />
            <Array as="points">
              <mxPoint x="1510" y="50" />
            </Array>
          </mxGeometry>
        </mxCell>
        <mxCell id="M3TPKHhHua5YoJJ2DM4J-146" value="Нет" style="edgeLabel;html=1;align=center;verticalAlign=middle;resizable=0;points=[];" parent="M3TPKHhHua5YoJJ2DM4J-144" vertex="1" connectable="0">
          <mxGeometry x="-0.8921" y="1" relative="1" as="geometry">
            <mxPoint as="offset" />
          </mxGeometry>
        </mxCell>
        <mxCell id="bPvuheQ4Vo8DeEKhQ3WO-3" value="Банковская система" style="swimlane;html=1;startSize=20;horizontal=0;" parent="bPvuheQ4Vo8DeEKhQ3WO-1" vertex="1">
          <mxGeometry x="20" y="200" width="1925" height="340" as="geometry" />
        </mxCell>
        <mxCell id="M3TPKHhHua5YoJJ2DM4J-103" value="Оплатить товар" style="points=[[0.25,0,0],[0.5,0,0],[0.75,0,0],[1,0.25,0],[1,0.5,0],[1,0.75,0],[0.75,1,0],[0.5,1,0],[0.25,1,0],[0,0.75,0],[0,0.5,0],[0,0.25,0]];shape=mxgraph.bpmn.task;whiteSpace=wrap;rectStyle=rounded;size=10;html=1;container=1;expand=0;collapsible=0;taskMarker=abstract;" parent="bPvuheQ4Vo8DeEKhQ3WO-3" vertex="1">
          <mxGeometry x="1355" y="140" width="110" height="60" as="geometry" />
        </mxCell>
        <mxCell id="s-Xhp7sbvqzumtTe6QiF-10" value="Магазин" style="swimlane;html=1;startSize=20;horizontal=0;" parent="bPvuheQ4Vo8DeEKhQ3WO-1" vertex="1">
          <mxGeometry x="20" y="540" width="1925" height="200" as="geometry" />
        </mxCell>
        <mxCell id="M3TPKHhHua5YoJJ2DM4J-66" value="Товар есть в наличии?" style="points=[[0.25,0.25,0],[0.5,0,0],[0.75,0.25,0],[1,0.5,0],[0.75,0.75,0],[0.5,1,0],[0.25,0.75,0],[0,0.5,0]];shape=mxgraph.bpmn.gateway2;html=1;verticalLabelPosition=bottom;labelBackgroundColor=none;verticalAlign=top;align=center;perimeter=rhombusPerimeter;outlineConnect=0;outline=none;symbol=none;gwType=exclusive;" parent="s-Xhp7sbvqzumtTe6QiF-10" vertex="1">
          <mxGeometry x="570" y="70" width="50" height="50" as="geometry" />
        </mxCell>
        <mxCell id="M3TPKHhHua5YoJJ2DM4J-68" value="Цена соответствует&lt;div&gt;цене в системе?&lt;/div&gt;" style="points=[[0.25,0.25,0],[0.5,0,0],[0.75,0.25,0],[1,0.5,0],[0.75,0.75,0],[0.5,1,0],[0.25,0.75,0],[0,0.5,0]];shape=mxgraph.bpmn.gateway2;html=1;verticalLabelPosition=bottom;labelBackgroundColor=none;verticalAlign=top;align=center;perimeter=rhombusPerimeter;outlineConnect=0;outline=none;symbol=none;gwType=exclusive;" parent="s-Xhp7sbvqzumtTe6QiF-10" vertex="1">
          <mxGeometry x="900" y="70" width="50" height="50" as="geometry" />
        </mxCell>
        <mxCell id="M3TPKHhHua5YoJJ2DM4J-69" value="Да" style="edgeStyle=elbowEdgeStyle;fontSize=12;html=1;endArrow=blockThin;endFill=1;rounded=0;exitX=1;exitY=0.5;exitDx=0;exitDy=0;exitPerimeter=0;entryX=0;entryY=0.5;entryDx=0;entryDy=0;entryPerimeter=0;" parent="s-Xhp7sbvqzumtTe6QiF-10" source="M3TPKHhHua5YoJJ2DM4J-66" target="M3TPKHhHua5YoJJ2DM4J-68" edge="1">
          <mxGeometry width="160" relative="1" as="geometry">
            <mxPoint x="630" y="-40" as="sourcePoint" />
            <mxPoint x="790" y="-40" as="targetPoint" />
          </mxGeometry>
        </mxCell>
        <mxCell id="M3TPKHhHua5YoJJ2DM4J-87" value="Приобрести товар" style="points=[[0.25,0,0],[0.5,0,0],[0.75,0,0],[1,0.25,0],[1,0.5,0],[1,0.75,0],[0.75,1,0],[0.5,1,0],[0.25,1,0],[0,0.75,0],[0,0.5,0],[0,0.25,0]];shape=mxgraph.bpmn.task;whiteSpace=wrap;rectStyle=rounded;size=10;html=1;container=1;expand=0;collapsible=0;taskMarker=abstract;" parent="s-Xhp7sbvqzumtTe6QiF-10" vertex="1">
          <mxGeometry x="1355" y="65" width="110" height="60" as="geometry" />
        </mxCell>
        <mxCell id="M3TPKHhHua5YoJJ2DM4J-88" value="Да" style="edgeStyle=elbowEdgeStyle;fontSize=12;html=1;endArrow=blockThin;endFill=1;rounded=0;entryX=0;entryY=0.5;entryDx=0;entryDy=0;entryPerimeter=0;exitX=1;exitY=0.5;exitDx=0;exitDy=0;exitPerimeter=0;" parent="s-Xhp7sbvqzumtTe6QiF-10" source="M3TPKHhHua5YoJJ2DM4J-68" target="M3TPKHhHua5YoJJ2DM4J-87" edge="1">
          <mxGeometry width="160" relative="1" as="geometry">
            <mxPoint x="590" y="60" as="sourcePoint" />
            <mxPoint x="750" y="60" as="targetPoint" />
          </mxGeometry>
        </mxCell>
        <mxCell id="M3TPKHhHua5YoJJ2DM4J-101" value="Ценник" style="shape=mxgraph.bpmn.data;labelPosition=center;verticalLabelPosition=bottom;align=center;verticalAlign=top;size=15;html=1;" parent="s-Xhp7sbvqzumtTe6QiF-10" vertex="1">
          <mxGeometry x="1225" y="110" width="30" height="50" as="geometry" />
        </mxCell>
        <mxCell id="M3TPKHhHua5YoJJ2DM4J-104" value="" style="edgeStyle=elbowEdgeStyle;fontSize=12;html=1;endArrow=blockThin;endFill=1;rounded=0;exitX=0.5;exitY=0;exitDx=0;exitDy=0;exitPerimeter=0;entryX=0.5;entryY=1;entryDx=0;entryDy=0;entryPerimeter=0;" parent="bPvuheQ4Vo8DeEKhQ3WO-1" source="M3TPKHhHua5YoJJ2DM4J-87" target="M3TPKHhHua5YoJJ2DM4J-103" edge="1">
          <mxGeometry width="160" relative="1" as="geometry">
            <mxPoint x="1420" y="430" as="sourcePoint" />
            <mxPoint x="1405" y="350" as="targetPoint" />
          </mxGeometry>
        </mxCell>
        <mxCell id="M3TPKHhHua5YoJJ2DM4J-57" value="" style="edgeStyle=elbowEdgeStyle;fontSize=12;html=1;endArrow=blockThin;endFill=1;rounded=0;exitX=0.25;exitY=1;exitDx=0;exitDy=0;exitPerimeter=0;entryX=0.25;entryY=0;entryDx=0;entryDy=0;entryPerimeter=0;" parent="bPvuheQ4Vo8DeEKhQ3WO-1" source="M3TPKHhHua5YoJJ2DM4J-52" target="M3TPKHhHua5YoJJ2DM4J-54" edge="1">
          <mxGeometry width="160" relative="1" as="geometry">
            <mxPoint x="330" y="470" as="sourcePoint" />
            <mxPoint x="490" y="470" as="targetPoint" />
          </mxGeometry>
        </mxCell>
        <mxCell id="M3TPKHhHua5YoJJ2DM4J-58" value="" style="edgeStyle=elbowEdgeStyle;fontSize=12;html=1;endArrow=blockThin;endFill=1;rounded=0;exitX=0.75;exitY=0;exitDx=0;exitDy=0;exitPerimeter=0;entryX=0.75;entryY=1;entryDx=0;entryDy=0;entryPerimeter=0;" parent="bPvuheQ4Vo8DeEKhQ3WO-1" source="M3TPKHhHua5YoJJ2DM4J-54" target="M3TPKHhHua5YoJJ2DM4J-52" edge="1">
          <mxGeometry width="160" relative="1" as="geometry">
            <mxPoint x="530" y="360" as="sourcePoint" />
            <mxPoint x="690" y="360" as="targetPoint" />
          </mxGeometry>
        </mxCell>
        <mxCell id="M3TPKHhHua5YoJJ2DM4J-67" value="" style="edgeStyle=elbowEdgeStyle;fontSize=12;html=1;endArrow=blockThin;endFill=1;rounded=0;exitX=0.5;exitY=1;exitDx=0;exitDy=0;exitPerimeter=0;entryX=0;entryY=0.5;entryDx=0;entryDy=0;entryPerimeter=0;" parent="bPvuheQ4Vo8DeEKhQ3WO-1" source="M3TPKHhHua5YoJJ2DM4J-61" target="M3TPKHhHua5YoJJ2DM4J-66" edge="1">
          <mxGeometry width="160" relative="1" as="geometry">
            <mxPoint x="120" y="390" as="sourcePoint" />
            <mxPoint x="470" y="500" as="targetPoint" />
            <Array as="points">
              <mxPoint x="505" y="320" />
            </Array>
          </mxGeometry>
        </mxCell>
        <mxCell id="M3TPKHhHua5YoJJ2DM4J-71" value="" style="edgeStyle=elbowEdgeStyle;fontSize=12;html=1;endArrow=blockThin;endFill=1;rounded=0;entryX=0;entryY=0.5;entryDx=0;entryDy=0;entryPerimeter=0;exitX=0.5;exitY=0;exitDx=0;exitDy=0;exitPerimeter=0;" parent="bPvuheQ4Vo8DeEKhQ3WO-1" source="M3TPKHhHua5YoJJ2DM4J-66" target="M3TPKHhHua5YoJJ2DM4J-70" edge="1">
          <mxGeometry width="160" relative="1" as="geometry">
            <mxPoint x="650" y="310" as="sourcePoint" />
            <mxPoint x="810" y="310" as="targetPoint" />
            <Array as="points">
              <mxPoint x="615" y="260" />
            </Array>
          </mxGeometry>
        </mxCell>
        <mxCell id="M3TPKHhHua5YoJJ2DM4J-94" value="" style="edgeStyle=elbowEdgeStyle;fontSize=12;html=1;endArrow=blockThin;endFill=1;rounded=0;exitX=0.5;exitY=0;exitDx=0;exitDy=0;exitPerimeter=0;entryX=0;entryY=0.5;entryDx=0;entryDy=0;entryPerimeter=0;" parent="bPvuheQ4Vo8DeEKhQ3WO-1" source="M3TPKHhHua5YoJJ2DM4J-68" target="M3TPKHhHua5YoJJ2DM4J-89" edge="1">
          <mxGeometry width="160" relative="1" as="geometry">
            <mxPoint x="830" y="310" as="sourcePoint" />
            <mxPoint x="990" y="310" as="targetPoint" />
            <Array as="points">
              <mxPoint x="945" y="250" />
            </Array>
          </mxGeometry>
        </mxCell>
        <mxCell id="M3TPKHhHua5YoJJ2DM4J-96" value="" style="edgeStyle=elbowEdgeStyle;fontSize=12;html=1;endArrow=blockThin;endFill=1;rounded=0;exitX=0.5;exitY=1;exitDx=0;exitDy=0;exitPerimeter=0;entryX=0.5;entryY=0;entryDx=0;entryDy=0;entryPerimeter=0;noJump=0;jumpStyle=arc;" parent="bPvuheQ4Vo8DeEKhQ3WO-1" source="M3TPKHhHua5YoJJ2DM4J-90" target="M3TPKHhHua5YoJJ2DM4J-95" edge="1">
          <mxGeometry width="160" relative="1" as="geometry">
            <mxPoint x="1125" y="410" as="sourcePoint" />
            <mxPoint x="1285" y="410" as="targetPoint" />
          </mxGeometry>
        </mxCell>
        <mxCell id="M3TPKHhHua5YoJJ2DM4J-107" value="" style="edgeStyle=elbowEdgeStyle;fontSize=12;html=1;endArrow=blockThin;endFill=1;rounded=0;exitX=0.5;exitY=0;exitDx=0;exitDy=0;exitPerimeter=0;entryX=0.5;entryY=1;entryDx=0;entryDy=0;entryPerimeter=0;" parent="bPvuheQ4Vo8DeEKhQ3WO-1" source="M3TPKHhHua5YoJJ2DM4J-103" target="M3TPKHhHua5YoJJ2DM4J-105" edge="1">
          <mxGeometry width="160" relative="1" as="geometry">
            <mxPoint x="1435" y="130" as="sourcePoint" />
            <mxPoint x="1595" y="130" as="targetPoint" />
          </mxGeometry>
        </mxCell>
        <mxCell id="M3TPKHhHua5YoJJ2DM4J-120" value="" style="edgeStyle=elbowEdgeStyle;fontSize=12;html=1;endFill=0;startFill=0;endSize=6;startSize=6;dashed=1;dashPattern=1 4;endArrow=openThin;startArrow=none;rounded=0;exitX=0;exitY=0.5;exitDx=0;exitDy=0;exitPerimeter=0;entryX=0.75;entryY=0;entryDx=0;entryDy=0;entryPerimeter=0;" parent="bPvuheQ4Vo8DeEKhQ3WO-1" source="M3TPKHhHua5YoJJ2DM4J-101" target="M3TPKHhHua5YoJJ2DM4J-95" edge="1">
          <mxGeometry width="160" relative="1" as="geometry">
            <mxPoint x="1095" y="620" as="sourcePoint" />
            <mxPoint x="1255" y="620" as="targetPoint" />
            <Array as="points">
              <mxPoint x="1223" y="710" />
            </Array>
          </mxGeometry>
        </mxCell>
        <mxCell id="M3TPKHhHua5YoJJ2DM4J-134" value="" style="edgeStyle=elbowEdgeStyle;fontSize=12;html=1;endArrow=blockThin;endFill=1;rounded=0;exitX=0.5;exitY=1;exitDx=0;exitDy=0;exitPerimeter=0;entryX=0.5;entryY=0;entryDx=0;entryDy=0;entryPerimeter=0;" parent="bPvuheQ4Vo8DeEKhQ3WO-1" source="M3TPKHhHua5YoJJ2DM4J-110" target="M3TPKHhHua5YoJJ2DM4J-130" edge="1">
          <mxGeometry width="160" relative="1" as="geometry">
            <mxPoint x="1775" y="370" as="sourcePoint" />
            <mxPoint x="1655" y="640" as="targetPoint" />
            <Array as="points">
              <mxPoint x="1660" y="410" />
            </Array>
          </mxGeometry>
        </mxCell>
        <mxCell id="bPvuheQ4Vo8DeEKhQ3WO-4" value="Система сравнения цен" style="swimlane;html=1;startSize=20;horizontal=0;" parent="bPvuheQ4Vo8DeEKhQ3WO-1" vertex="1">
          <mxGeometry x="20" y="740" width="1925" height="240" as="geometry" />
        </mxCell>
        <mxCell id="M3TPKHhHua5YoJJ2DM4J-54" value="Получить данные&lt;div&gt;о товаре в&amp;nbsp;&lt;/div&gt;&lt;div&gt;различных&amp;nbsp; магазинах&lt;/div&gt;" style="points=[[0.25,0,0],[0.5,0,0],[0.75,0,0],[1,0.25,0],[1,0.5,0],[1,0.75,0],[0.75,1,0],[0.5,1,0],[0.25,1,0],[0,0.75,0],[0,0.5,0],[0,0.25,0]];shape=mxgraph.bpmn.task;whiteSpace=wrap;rectStyle=rounded;size=10;html=1;container=1;expand=0;collapsible=0;taskMarker=abstract;" parent="bPvuheQ4Vo8DeEKhQ3WO-4" vertex="1">
          <mxGeometry x="175" y="50" width="110" height="60" as="geometry" />
        </mxCell>
        <mxCell id="M3TPKHhHua5YoJJ2DM4J-55" value="Товар в различных&lt;div&gt;магазинах&lt;/div&gt;" style="shape=datastore;html=1;labelPosition=center;verticalLabelPosition=bottom;align=center;verticalAlign=top;" parent="bPvuheQ4Vo8DeEKhQ3WO-4" vertex="1">
          <mxGeometry x="80" y="120" width="70" height="60" as="geometry" />
        </mxCell>
        <mxCell id="M3TPKHhHua5YoJJ2DM4J-56" value="" style="edgeStyle=elbowEdgeStyle;fontSize=12;html=1;endFill=0;startFill=0;endSize=6;startSize=6;dashed=1;dashPattern=1 4;endArrow=openThin;startArrow=none;rounded=0;exitX=0.5;exitY=0;exitDx=0;exitDy=0;entryX=0;entryY=0.5;entryDx=0;entryDy=0;entryPerimeter=0;" parent="bPvuheQ4Vo8DeEKhQ3WO-4" source="M3TPKHhHua5YoJJ2DM4J-55" target="M3TPKHhHua5YoJJ2DM4J-54" edge="1">
          <mxGeometry width="160" relative="1" as="geometry">
            <mxPoint x="260" y="-40" as="sourcePoint" />
            <mxPoint x="285" y="80" as="targetPoint" />
            <Array as="points">
              <mxPoint x="115" y="80" />
            </Array>
          </mxGeometry>
        </mxCell>
        <mxCell id="M3TPKHhHua5YoJJ2DM4J-95" value="Внести изменение цены на товар" style="points=[[0.25,0,0],[0.5,0,0],[0.75,0,0],[1,0.25,0],[1,0.5,0],[1,0.75,0],[0.75,1,0],[0.5,1,0],[0.25,1,0],[0,0.75,0],[0,0.5,0],[0,0.25,0]];shape=mxgraph.bpmn.task;whiteSpace=wrap;rectStyle=rounded;size=10;html=1;container=1;expand=0;collapsible=0;taskMarker=abstract;" parent="bPvuheQ4Vo8DeEKhQ3WO-4" vertex="1">
          <mxGeometry x="1120" y="60" width="110" height="60" as="geometry" />
        </mxCell>
        <mxCell id="M3TPKHhHua5YoJJ2DM4J-99" value="Товары текущего&lt;div&gt;магазина&lt;/div&gt;" style="shape=datastore;html=1;labelPosition=center;verticalLabelPosition=bottom;align=center;verticalAlign=top;" parent="bPvuheQ4Vo8DeEKhQ3WO-4" vertex="1">
          <mxGeometry x="1285" y="135" width="70" height="60" as="geometry" />
        </mxCell>
        <mxCell id="M3TPKHhHua5YoJJ2DM4J-100" value="" style="edgeStyle=elbowEdgeStyle;fontSize=12;html=1;endFill=0;startFill=0;endSize=6;startSize=6;dashed=1;dashPattern=1 4;endArrow=openThin;startArrow=none;rounded=0;exitX=1;exitY=0.5;exitDx=0;exitDy=0;exitPerimeter=0;entryX=0.5;entryY=0;entryDx=0;entryDy=0;" parent="bPvuheQ4Vo8DeEKhQ3WO-4" source="M3TPKHhHua5YoJJ2DM4J-95" target="M3TPKHhHua5YoJJ2DM4J-99" edge="1">
          <mxGeometry width="160" relative="1" as="geometry">
            <mxPoint x="1045" y="-20" as="sourcePoint" />
            <mxPoint x="1205" y="-20" as="targetPoint" />
            <Array as="points">
              <mxPoint x="1320" y="110" />
            </Array>
          </mxGeometry>
        </mxCell>
        <mxCell id="M3TPKHhHua5YoJJ2DM4J-130" value="Провести анализ полученного чека" style="points=[[0.25,0,0],[0.5,0,0],[0.75,0,0],[1,0.25,0],[1,0.5,0],[1,0.75,0],[0.75,1,0],[0.5,1,0],[0.25,1,0],[0,0.75,0],[0,0.5,0],[0,0.25,0]];shape=mxgraph.bpmn.task;whiteSpace=wrap;rectStyle=rounded;size=10;html=1;container=1;expand=0;collapsible=0;taskMarker=receive;" parent="bPvuheQ4Vo8DeEKhQ3WO-4" vertex="1">
          <mxGeometry x="1585" y="60" width="110" height="60" as="geometry" />
        </mxCell>
        <mxCell id="M3TPKHhHua5YoJJ2DM4J-135" value="Чек" style="shape=mxgraph.bpmn.data;labelPosition=center;verticalLabelPosition=bottom;align=center;verticalAlign=top;size=15;html=1;" parent="bPvuheQ4Vo8DeEKhQ3WO-4" vertex="1">
          <mxGeometry x="1505" y="135" width="30" height="50" as="geometry" />
        </mxCell>
        <mxCell id="M3TPKHhHua5YoJJ2DM4J-136" value="" style="edgeStyle=elbowEdgeStyle;fontSize=12;html=1;endFill=0;startFill=0;endSize=6;startSize=6;dashed=1;dashPattern=1 4;endArrow=openThin;startArrow=none;rounded=0;exitX=0;exitY=0;exitDx=30;exitDy=32.5;exitPerimeter=0;entryX=0;entryY=0.5;entryDx=0;entryDy=0;entryPerimeter=0;" parent="bPvuheQ4Vo8DeEKhQ3WO-4" source="M3TPKHhHua5YoJJ2DM4J-135" target="M3TPKHhHua5YoJJ2DM4J-130" edge="1">
          <mxGeometry width="160" relative="1" as="geometry">
            <mxPoint x="1725" y="110" as="sourcePoint" />
            <mxPoint x="1885" y="110" as="targetPoint" />
            <Array as="points">
              <mxPoint x="1545" y="130" />
            </Array>
          </mxGeometry>
        </mxCell>
        <mxCell id="M3TPKHhHua5YoJJ2DM4J-137" value="Товары текущего&lt;div&gt;магазина&lt;/div&gt;" style="shape=datastore;html=1;labelPosition=center;verticalLabelPosition=bottom;align=center;verticalAlign=top;" parent="bPvuheQ4Vo8DeEKhQ3WO-4" vertex="1">
          <mxGeometry x="1605" y="140" width="70" height="60" as="geometry" />
        </mxCell>
        <mxCell id="M3TPKHhHua5YoJJ2DM4J-138" value="" style="edgeStyle=elbowEdgeStyle;fontSize=12;html=1;endFill=0;startFill=0;endSize=6;startSize=6;dashed=1;dashPattern=1 4;endArrow=openThin;startArrow=none;rounded=0;exitX=0.5;exitY=1;exitDx=0;exitDy=0;exitPerimeter=0;entryX=0.5;entryY=0;entryDx=0;entryDy=0;" parent="bPvuheQ4Vo8DeEKhQ3WO-4" source="M3TPKHhHua5YoJJ2DM4J-130" target="M3TPKHhHua5YoJJ2DM4J-137" edge="1">
          <mxGeometry width="160" relative="1" as="geometry">
            <mxPoint x="1635" y="135" as="sourcePoint" />
            <mxPoint x="1665" y="174.99999999999977" as="targetPoint" />
            <Array as="points" />
          </mxGeometry>
        </mxCell>
        <mxCell id="M3TPKHhHua5YoJJ2DM4J-139" value="Данные о покупке&lt;div&gt;получены&lt;/div&gt;" style="points=[[0.145,0.145,0],[0.5,0,0],[0.855,0.145,0],[1,0.5,0],[0.855,0.855,0],[0.5,1,0],[0.145,0.855,0],[0,0.5,0]];shape=mxgraph.bpmn.event;html=1;verticalLabelPosition=bottom;labelBackgroundColor=none;verticalAlign=top;align=center;perimeter=ellipsePerimeter;outlineConnect=0;aspect=fixed;outline=end;symbol=terminate2;" parent="bPvuheQ4Vo8DeEKhQ3WO-4" vertex="1">
          <mxGeometry x="1835" y="76.25" width="27.5" height="27.5" as="geometry" />
        </mxCell>
        <mxCell id="M3TPKHhHua5YoJJ2DM4J-140" value="" style="edgeStyle=elbowEdgeStyle;fontSize=12;html=1;endArrow=blockThin;endFill=1;rounded=0;exitX=1;exitY=0.5;exitDx=0;exitDy=0;exitPerimeter=0;entryX=0;entryY=0.5;entryDx=0;entryDy=0;entryPerimeter=0;" parent="bPvuheQ4Vo8DeEKhQ3WO-4" source="M3TPKHhHua5YoJJ2DM4J-130" target="M3TPKHhHua5YoJJ2DM4J-139" edge="1">
          <mxGeometry width="160" relative="1" as="geometry">
            <mxPoint x="1725" y="110" as="sourcePoint" />
            <mxPoint x="1885" y="110" as="targetPoint" />
          </mxGeometry>
        </mxCell>
        <mxCell id="M3TPKHhHua5YoJJ2DM4J-142" value="Данные&amp;nbsp; об&amp;nbsp;&lt;div&gt;изменении цены&lt;/div&gt;&lt;div&gt;получены&lt;/div&gt;" style="points=[[0.145,0.145,0],[0.5,0,0],[0.855,0.145,0],[1,0.5,0],[0.855,0.855,0],[0.5,1,0],[0.145,0.855,0],[0,0.5,0]];shape=mxgraph.bpmn.event;html=1;verticalLabelPosition=bottom;labelBackgroundColor=none;verticalAlign=top;align=center;perimeter=ellipsePerimeter;outlineConnect=0;aspect=fixed;outline=end;symbol=terminate2;" parent="bPvuheQ4Vo8DeEKhQ3WO-4" vertex="1">
          <mxGeometry x="1161.25" y="156.25" width="27.5" height="27.5" as="geometry" />
        </mxCell>
        <mxCell id="M3TPKHhHua5YoJJ2DM4J-143" value="" style="edgeStyle=elbowEdgeStyle;fontSize=12;html=1;endArrow=blockThin;endFill=1;rounded=0;exitX=0.5;exitY=1;exitDx=0;exitDy=0;exitPerimeter=0;entryX=0.5;entryY=0;entryDx=0;entryDy=0;entryPerimeter=0;" parent="bPvuheQ4Vo8DeEKhQ3WO-4" source="M3TPKHhHua5YoJJ2DM4J-95" target="M3TPKHhHua5YoJJ2DM4J-142" edge="1">
          <mxGeometry width="160" relative="1" as="geometry">
            <mxPoint x="1305" y="-70" as="sourcePoint" />
            <mxPoint x="1465" y="-70" as="targetPoint" />
          </mxGeometry>
        </mxCell>
      </root>
    </mxGraphModel>
  </diagram>
</mxfile>
